<svg width="24" height="24" viewBox="0 0 24 24" fill="none" xmlns="http://www.w3.org/2000/svg">
<path d="M8.77649 15.2146L9.13004 15.5681L9.4836 15.2146L17.95 6.74819C18.1101 6.58804 18.3134 6.50002 18.6009 6.50002C18.8884 6.50002 19.0917 6.58804 19.2518 6.74819L19.6004 6.39966L19.2518 6.74819C19.412 6.90834 19.5 7.11161 19.5 7.39912C19.5 7.68663 19.412 7.8899 19.2518 8.05005L19.6054 8.4036L19.2518 8.05005L9.78098 17.5209C9.58143 17.7204 9.37143 17.8049 9.13004 17.8049C8.88866 17.8049 8.67865 17.7204 8.47911 17.5209L4.74817 13.79L4.40047 14.1377L4.74817 13.79C4.58802 13.6298 4.5 13.4265 4.5 13.139C4.5 12.8515 4.58802 12.6482 4.74817 12.4881C4.90832 12.3279 5.11159 12.2399 5.3991 12.2399C5.68662 12.2399 5.88989 12.3279 6.05003 12.4881L8.77649 15.2146Z" fill="#252B42" stroke="#252B42"/>
</svg>
